<?xml version="1.0" encoding="UTF-8" standalone="no"?>
<!DOCTYPE svg PUBLIC "-//W3C//DTD SVG 1.1//EN" "http://www.w3.org/Graphics/SVG/1.1/DTD/svg11.dtd">
<svg width="100%" height="100%" viewBox="0 0 822 825" version="1.1" xmlns="http://www.w3.org/2000/svg" xmlns:xlink="http://www.w3.org/1999/xlink" xml:space="preserve" xmlns:serif="http://www.serif.com/" style="fill-rule:evenodd;clip-rule:evenodd;stroke-linejoin:round;stroke-miterlimit:2;">
    <g id="Background">
        <path d="M503.206,1.383C504.017,7.041 511.047,3.666 513.62,18.903C513.801,19.976 513.944,19.932 513.897,151.038C513.871,223.071 509.894,247.159 539.392,274.033C565.198,297.544 582.402,293.941 677.052,294C801.534,294.079 803.544,292.678 811.747,301.676C813.083,303.141 813.494,301.411 813.588,301.397C822.306,315.902 820.499,317.074 820.663,447.394C820.954,677.264 821.972,677.284 819.74,697.139C811.638,769.204 758.197,824.648 675.827,824.924C501.114,824.93 326.401,824.936 151.688,824.941C121.181,824.938 92.848,822.966 55.12,796.175C0.986,757.734 0.289,689.204 0.184,678.839C-0.15,646.006 0.069,186.503 0.089,143.691C0.101,119.579 1.133,86.308 31.02,48.623C45.922,29.833 83.055,0.144 135.773,0.098C164.478,0.073 488.168,-0.208 494.591,0.311C498.943,0.663 498.831,0.762 503.206,1.383Z" style="fill:#003aac;"/>
        <path d="M503.206,1.383C537.18,13.646 535.007,17.767 579.009,60.49C596.205,77.187 595.537,77.811 791.35,271.847C796.19,276.643 803.351,282.906 813.588,301.397C813.494,301.411 813.083,303.141 811.747,301.676C803.544,292.678 801.534,294.079 677.052,294C582.402,293.941 565.198,297.544 539.392,274.033C509.894,247.159 513.871,223.071 513.897,151.038C513.944,19.932 513.801,19.976 513.62,18.903C511.047,3.666 504.017,7.041 503.206,1.383Z" style="fill:#69b7fd;"/>
        <path d="M175.778,544.279C175.77,544.248 168.671,525.909 185.131,509.009C187.043,507.046 293.274,424.501 314.115,408.878C317.954,406 311.543,402.848 305.197,397.869C294.996,389.864 181.777,301.019 178.013,297.386C146.419,266.88 186.275,221.843 219.338,249.879C219.852,250.315 360.301,360.832 371.689,369.589C375.874,372.807 409.878,398.954 382.538,434.676C376.804,442.168 241.38,543.881 230.354,553.072C204.738,574.423 184.347,563.525 175.778,544.279Z" style="fill:#fdfdfd;"/>
        <path d="M394.339,615.059C382.197,590.982 398.538,568.707 418.68,567.841C423.054,567.653 607.467,567.733 613.369,567.787C651.899,568.142 653.039,625.893 617.027,629.687C605.629,630.888 605.63,630.156 473.765,630.045C409.975,629.991 406.227,632.543 394.339,615.059Z" style="fill:#fcfcfd;"/>
    </g>
</svg>
